<svg width="1440" height="409" viewBox="0 0 1440 409" fill="none" xmlns="http://www.w3.org/2000/svg">
<g clip-path="url(#clip0_1147_185)">
<path d="M0 332.488V352.263V361.762V411.263L1440 409.762V361.263V252.307C1412.8 247.389 1380.57 242.363 1377.3 242.084C1376.79 242.048 1376.24 242.042 1375.75 242.084C1369.95 242.568 1365 248.147 1360.04 253.233C1329.35 284.996 1261 323.762 1258.24 324.673C1252.75 327.179 1248.36 330.655 1244.8 335.126C1228.53 334.505 1212.21 331.292 1196.27 325.411C1176.95 318.281 1156.35 307.499 1137.86 311.504C1133.66 312.415 1129.55 314.08 1125.59 316.737C1111.28 326.347 1101.59 347.58 1086.31 354.404C1078.92 357.702 1071.5 357.258 1064.05 354.801C1047.05 349.196 1030.02 333.024 1012.72 326.157C998.582 320.548 983.849 321.27 969.366 321.989C893.536 326.346 751.653 337.063 737.914 340.394C709.113 348.31 681.572 370.295 656.412 348.273C645.501 338.707 636.096 323.057 623.83 320.543C622.945 320.364 622.052 320.234 621.14 320.198C613.136 319.864 605.625 325.572 598.286 330.483C578.608 343.648 557.329 351.655 535.757 354.574C501.394 359.236 466.304 350.884 435.765 329.57C423.91 321.3 412.292 311.126 399.285 308.577C398.416 308.406 397.559 308.166 396.675 308.068C381.378 306.36 366.395 316.134 351.447 322.939C334.102 330.855 303.632 327.711 285.682 327.627C255.705 327.524 226.079 317.667 200.186 298.329C188.536 289.638 176.578 278.804 163.15 281.154C155.404 282.505 148.166 288.163 140.72 292.198C105.647 311.178 70.973 281.616 47.5 244.262C42 237.758 24.6243 246.694 0 253.258V296.28V310.927V332.488Z" fill="#060A1A"/>
<path d="M1312.45 209.243C1308.8 201.241 1303.59 193.993 1300.32 185.829C1294.28 170.731 1295.33 153.843 1292.53 137.824C1289.73 121.804 1280.78 104.61 1264.89 101.129C1253.12 98.549 1240.75 104.615 1232.81 113.687C1224.88 122.76 1220.61 134.412 1217.09 145.938C1214.6 154.121 1212.13 162.826 1205.89 168.678C1201.7 172.605 1196.18 174.856 1191.9 178.682C1185.13 184.734 1182.18 194.271 1182.62 203.341C1183.06 212.411 1186.54 221.085 1190.94 229.025C1193.58 233.779 1196.6 238.425 1197.99 243.683C1199.86 250.797 1198.57 258.336 1199.22 265.664C1200.28 277.633 1206.85 289.002 1216.69 295.903C1226.53 302.804 1239.45 305.108 1251.07 302.033C1271.53 313.739 1306.94 297.161 1308.33 272.585C1309.58 250.578 1321.59 229.294 1312.45 209.243Z" fill="#00D09B"/>
<path d="M1272.25 183.734C1265.58 190.157 1259.22 196.895 1253.09 203.84V165.412C1253.09 163.531 1250.17 163.528 1250.17 165.412V207.272C1250.07 207.561 1250.09 207.849 1250.17 208.123V252.938C1242.67 242.679 1235.17 232.421 1227.67 222.162C1226.57 220.658 1224.03 222.116 1225.15 223.639C1233.26 234.743 1241.38 245.846 1249.5 256.951C1249.68 257.209 1249.92 257.352 1250.17 257.451V362.869C1250.17 364.75 1253.09 364.753 1253.09 362.869V208.197C1259.83 200.418 1266.9 192.937 1274.32 185.803C1275.67 184.494 1273.61 182.428 1272.25 183.734Z" fill="#060A1A"/>
<path d="M262.087 179.243C258.437 171.241 253.231 163.993 249.964 155.829C243.921 140.731 244.97 123.843 242.17 107.824C239.37 91.8045 230.422 74.6097 214.536 71.1289C202.764 68.549 190.389 74.6147 182.454 83.6871C174.52 92.7595 170.256 104.412 166.736 115.938C164.237 124.121 161.769 132.826 155.529 138.678C151.342 142.605 145.822 144.856 141.543 148.682C134.772 154.734 131.819 164.271 132.258 173.341C132.697 182.411 136.179 191.085 140.586 199.025C143.224 203.779 146.243 208.425 147.627 213.683C149.501 220.797 148.209 228.336 148.861 235.664C149.925 247.633 156.493 259.002 166.332 265.903C176.169 272.804 189.095 275.108 200.712 272.033C221.169 283.739 256.577 267.161 257.974 242.585C259.225 220.578 271.234 199.294 262.087 179.243Z" fill="#00D09B"/>
<path d="M221.891 183.734C215.217 190.157 208.859 196.895 202.733 203.84V165.412C202.733 163.531 199.807 163.528 199.807 165.412V207.272C199.71 207.561 199.729 207.849 199.807 208.123V252.938C192.31 242.679 184.811 232.421 177.312 222.162C176.214 220.658 173.675 222.116 174.787 223.639C182.904 234.743 191.02 245.846 199.138 256.951C199.326 257.209 199.562 257.352 199.807 257.451V362.869C199.807 364.75 202.733 364.753 202.733 362.869V208.197C209.469 200.418 216.544 192.937 223.958 185.803C225.315 184.494 223.246 182.428 221.891 183.734Z" fill="#060A1A"/>
<path d="M1139.54 57C1131.55 57 1125.08 63.5461 1125.08 71.6215C1125.08 74.4286 1125.86 77.0493 1127.22 79.2765L1124 87L1133.13 84.7279C1135.06 85.6959 1137.24 86.243 1139.54 86.243C1147.53 86.243 1154 79.6969 1154 71.622C1154 63.5461 1147.53 57 1139.54 57Z" fill="#285BC3"/>
<path d="M1137.2 68.1181V76.6227H1134.4C1133.07 76.6227 1132 75.4859 1132 74.0846V70.6591C1132 69.2577 1133.07 68.1181 1134.4 68.1181H1137.2ZM1147.36 76.4319C1146.4 77.5877 1138.26 76.6222 1138.26 76.6222V68.1175C1138.26 68.1175 1139.59 67.3518 1139.99 65.941C1140.38 64.5397 1140.97 62.7432 1141.99 63.0306C1143.02 63.318 1143.39 66.2385 1142.13 68.1175C1142.13 68.1175 1146.11 66.9779 1147.19 68.2241C1148.21 69.4028 1148.26 75.3503 1147.36 76.4319Z" fill="white"/>
<path d="M694.385 164.134C694.385 164.134 728.013 183.555 738.262 179.925C742.737 178.338 747.21 173.082 750.871 166.527C756.207 156.979 759.824 144.68 759.21 137.004C758.416 127.043 743.271 132.158 740.224 141.539C736.624 152.622 735.588 153.489 734.012 158.625C733.433 160.535 732.84 161.908 732.142 162.633C728.481 166.429 698.87 154.442 698.87 154.442C698.87 154.442 688.148 147.924 685.041 152.188C678.496 161.171 691.184 166.234 694.385 164.134Z" fill="#F9A78D"/>
<path d="M730.834 161.381L752.55 172.003C758.441 161.461 763.483 148.833 762.805 140.359C761.929 129.361 745.364 123.899 738.713 141.224C735.194 150.392 732.575 155.711 730.834 161.381Z" fill="#7080FF"/>
<path d="M732.624 374.701L729.078 363.369C729.782 361.483 730.961 358.553 731.619 356.766C741.653 329.532 746.497 313.396 749.341 288.732C752.967 257.25 769.005 262.839 772.73 226.515L729.079 204.664C722.023 226.199 718.956 256.24 718.247 285.065C717.735 305.828 720.957 329.436 717.822 356.767C717.651 358.311 716.206 361.805 715.989 363.37L700.333 374.702H732.624V374.701Z" fill="#F9A78D"/>
<path d="M716.264 356.766H734.137C744.171 329.532 746.497 313.396 749.342 288.732C750.171 281.552 751.642 276.303 753.46 272.045C759.64 257.618 769.856 254.561 772.731 226.515L729.08 204.664C722.024 226.199 718.957 256.24 718.248 285.065C717.736 305.827 719.398 329.435 716.264 356.766Z" fill="#382D80"/>
<path d="M729.183 356.761H734.136C744.17 329.527 746.496 313.391 749.341 288.727C750.17 281.547 751.641 276.299 753.459 272.041C753.832 269.508 736.532 227.781 736.532 227.781C729.483 257.063 742.879 297.702 729.183 356.761Z" fill="#312770"/>
<path d="M800.833 355.218C801.218 356.351 801.705 360.459 801.949 361.849C797.555 367.375 793.096 372.649 788.678 378.076C799.971 374.596 811.267 371.126 822.563 367.651C820.012 364.632 817.49 361.678 814.923 358.613C814.685 356.487 813.975 353.292 813.61 351.175C809.478 327.228 799.756 302.256 789.938 281.236C777.134 253.824 785.285 229.78 772.495 202.203C758.121 206.046 743.658 209.743 729.009 213.225C736.845 242.285 745.839 268.137 761.783 294.773C773.344 314.09 793.023 332.279 800.833 355.218Z" fill="#F9A78D"/>
<path d="M760.648 294.946C772.427 314.643 791.512 332.783 799.329 355.522C805.143 353.871 810.849 352.215 816.362 350.222C812.221 326.292 799.832 302.204 789.96 281.23C777.086 253.877 785.316 229.744 772.489 202.211C757.761 204.769 742.867 207.07 727.896 209.384C735.795 239.261 744.403 267.783 760.648 294.946Z" fill="#493D93"/>
<path d="M814.45 358.07C819.922 359.65 821.169 364.395 822.082 369.526C811.27 372.85 800.459 376.178 789.647 379.502C788.038 370.289 795.476 366.956 801.966 361.913C806.723 363.277 810.654 360.735 814.45 358.07ZM729.078 363.368C734.063 365.524 733.715 371.926 733.084 376.318H699.087C699.087 367.512 705.822 367.447 715.989 363.368C718.735 365.613 723.222 365.44 729.078 363.368Z" fill="#5971A0"/>
<path d="M730.863 209.773C743.878 208.895 760.135 212.434 772.669 208.246C774.447 207.649 775.6 205.927 775.442 204.058C775.281 202.169 775.16 200.364 775.073 198.634C774.968 196.562 774.913 194.594 774.895 192.712C774.734 176.205 777.366 166.096 774.242 148.414C772.306 137.444 769.452 133.553 766.358 129.332C763.255 125.099 753.926 121.867 753.926 121.867L747.546 125.124C721.2 133.938 726.937 184.387 726.279 205.321C726.198 207.874 728.319 209.945 730.863 209.773Z" fill="#5263F2"/>
<path d="M753.923 121.868C753.73 122.293 753.508 122.698 753.277 123.074C749.93 128.523 742.763 129.913 743.032 127.164L740.592 119.766L737.987 111.904L745.472 108.094L748.685 113.321L753.923 121.868Z" fill="#F9A78D"/>
<path d="M753.923 121.869C753.731 122.294 753.508 122.699 753.277 123.075C752.196 121.647 749.117 115.199 745.955 118.22C743.412 120.65 740.592 119.767 740.592 119.767L744.393 112.609C744.393 112.609 746.389 112.927 748.685 113.322L753.923 121.869Z" fill="#F5BABA"/>
<path d="M700.264 165.924L702.714 162.133L681.896 148.68L679.447 152.47L700.264 165.924Z" fill="#060A1A"/>
<path d="M723.382 100.287C723.643 101.275 724.263 101.309 724.509 102.305C724.713 103.136 725.244 105.235 727.182 105.25C727.232 105.25 727.28 105.216 727.327 105.199C727.733 105.042 728.124 104.798 728.55 104.854C728.796 104.888 729.011 105.014 729.234 105.118C730.906 105.903 733.127 105.177 734.009 103.556C734.641 104.578 735.83 105.229 737.033 105.213C738.236 105.192 739.404 104.502 740.001 103.46C740.785 104.021 741.795 104.383 742.716 104.102C743.152 103.967 743.482 103.166 743.657 102.267C743.766 101.721 744.077 102.482 744.065 101.991L743.977 101.62C744.688 100.326 745.998 98.8263 747.936 99.9751C751.703 102.207 747.668 107.377 747.668 107.377C747.668 107.377 748.108 109.486 746.507 112.917C746.507 112.917 748.047 115.847 750.732 114.398C752.03 114.384 752.776 111.283 752.11 110.603C753.087 110.417 753.926 109.637 754.185 108.674C754.441 107.714 754.105 106.619 753.353 105.968C753.198 105.836 753.027 105.714 752.946 105.528C752.794 105.162 753.074 104.772 753.288 104.438C754.16 103.063 753.938 101.094 752.781 99.9515C752.566 99.7331 752.305 99.5217 752.254 99.2197C752.223 99.0289 752.281 98.839 752.321 98.6541C752.664 97.0588 751.55 95.2943 749.961 94.9195C749.754 94.8723 749.526 94.836 749.367 94.6894C749.13 94.4701 749.149 94.0992 749.112 93.7806C748.996 92.7596 748.149 91.9305 747.182 91.5735C746.219 91.2194 745.156 91.2538 744.133 91.3797C744.147 90.6194 743.567 89.9446 742.87 89.6417C742.173 89.3388 741.386 89.3358 740.626 89.3958C739.498 89.4824 738.379 89.6978 737.296 90.0312C737.248 89.2896 736.704 88.6395 736.033 88.3208C735.359 88.0031 734.582 87.9726 733.849 88.0778C732.494 88.2755 731.212 88.9218 730.251 89.8896C729.999 90.1424 729.759 90.4207 729.431 90.5545C729.171 90.6568 728.884 90.6548 728.608 90.6823C726.161 90.8958 724.208 93.4855 724.666 95.8962C723.49 96.9821 722.974 98.7387 723.382 100.287Z" fill="#060A1A"/>
<path d="M727.327 105.205C728.003 107.637 729.056 110.864 730.525 113.699C732.615 117.771 735.552 121.053 739.418 120.127C743.019 119.26 745.048 116.896 746.189 114.434C747.792 111.002 747.671 107.385 747.671 107.385C747.671 107.385 751.703 102.215 747.939 99.9784C746 98.8316 744.689 100.334 743.978 101.627C743.851 101.852 743.747 102.074 743.657 102.273C743.592 102.607 743.509 102.925 743.404 103.2C743.227 103.671 742.991 104.021 742.717 104.106C742.489 104.174 742.256 104.203 742.021 104.203C741.309 104.199 740.589 103.89 740.002 103.466C739.404 104.507 738.237 105.196 737.033 105.218C735.829 105.234 734.645 104.586 734.01 103.564C733.131 105.184 730.905 105.908 729.237 105.125C729.013 105.021 728.794 104.893 728.55 104.86C728.125 104.805 727.731 105.051 727.327 105.205ZM700.901 170.654C700.901 170.654 734.529 190.074 744.778 186.445C749.253 184.857 753.726 179.601 757.387 173.047C762.723 163.498 766.34 151.2 765.726 143.524C764.932 133.562 749.787 138.678 746.74 148.058C743.14 159.142 742.104 160.009 740.528 165.145C739.949 167.055 739.357 168.428 738.658 169.153C734.997 172.948 705.387 160.962 705.387 160.962C705.387 160.962 694.665 154.444 691.558 158.707C685.012 167.69 697.701 172.755 700.901 170.654Z" fill="#F9A78D"/>
<path d="M737.351 167.897L759.067 178.518C764.958 167.976 770 155.348 769.322 146.875C768.446 135.877 751.881 130.415 745.23 147.739C741.71 156.906 739.091 162.225 737.351 167.897Z" fill="#8893F2"/>
<path d="M553.658 295.754C555.009 303.475 555.795 310.36 556.149 316.722C557.062 332.974 556.748 345.818 554.166 361.274L546.346 360.795C546.346 360.795 539.546 328.435 535.899 306.319C534.96 300.706 534.245 295.705 533.902 291.954C531.885 270.533 542.563 211.561 543.25 207.742L543.278 207.596L543.287 207.542L568.408 205.508C580.72 248.937 564.712 257.866 553.658 295.754Z" fill="#F9A78D"/>
<path d="M598.478 358.485C597.739 355.1 586.925 329.79 576.695 315.034C574.252 311.51 571.97 308.435 570.049 306.181C556.337 290.08 542.914 204.438 542.917 204.437C542.913 204.439 563.313 202.784 563.303 202.789C580.907 221.15 579.022 248.58 581.7 275.275C582.629 284.527 585.53 293.312 589.932 300.803C590.818 302.311 591.649 303.851 592.45 305.429C598.039 316.441 603.46 331.934 608.978 356.747C608.979 356.747 598.482 358.483 598.478 358.485Z" fill="#F9A78D"/>
<path d="M523.494 281.886C523.471 283.323 524.722 284.45 526.144 284.265C550.515 281.152 566.103 289.294 585.461 286.181C586.573 286.003 587.701 285.787 588.844 285.532C590.883 285.077 592.374 283.301 592.514 281.214C594.615 249.783 592.977 221.442 584.31 203.281H538.974C538.973 203.281 523.988 254.194 523.494 281.886Z" fill="#493D93"/>
<path d="M585.576 255.978C585.56 271.505 585.499 280.998 585.46 286.181C586.572 286.003 587.7 285.787 588.843 285.532C590.882 285.077 592.373 283.3 592.513 281.214C594.614 249.783 592.976 221.442 584.309 203.281H582.178L579.736 205.691C579.736 205.691 585.607 229.614 585.576 255.978Z" fill="#382D80"/>
<path d="M549.507 101.868C549.483 98.9878 550.356 95.9731 552.469 94.0168C555.083 91.5953 559.115 91.254 562.538 92.2484C565.96 93.2427 568.923 95.3692 571.811 97.4583C576.323 100.722 581.147 104.431 582.484 109.837C584.035 116.103 580.403 122.954 582.569 129.035C584.123 133.397 588.244 136.198 591.572 139.419C594.899 142.639 597.71 147.535 595.74 151.725C593.494 156.498 586.497 157.279 583.91 161.876C582.281 164.773 582.847 168.449 581.553 171.509C580.221 174.658 576.811 176.8 573.397 176.634C569.982 176.468 566.796 174.005 565.775 170.743C565.093 168.563 565.316 166.173 564.595 164.006C563.485 160.669 560.401 158.473 558.037 155.869C552.367 149.628 550.755 140.005 555.125 132.296C551.553 125.718 549.906 118.595 552.21 110.358C550.352 107.554 549.532 104.748 549.507 101.868Z" fill="#060A1A"/>
<path d="M510.482 125.603L497.815 130.133L507.432 157.025L520.099 152.495L510.482 125.603Z" fill="#060A1A"/>
<path d="M537.818 174.665C537.818 174.665 536.929 192.812 527.45 193.6C519.496 194.276 510.371 163.758 504.096 155.717C498.055 147.976 494.622 141.724 498.736 139.268C509.601 132.78 510.207 143.838 510.625 152.296L523.348 171.952L540.126 139.728L537.818 174.665ZM614.854 244.731C609.988 245.938 604.971 238.335 604.971 238.335C604.971 238.335 602.997 243.274 601.483 241.023C599.97 238.758 602.411 232.668 602.411 232.668L601.011 228.066L585.404 176.828L579.709 135.43C589.601 139.607 605.463 206.505 608.039 226.165C608.515 229.778 608.765 231.905 608.765 231.905C608.765 231.905 620.087 243.431 614.854 244.731Z" fill="#F9A78D"/>
<path d="M503.779 156.248C507.263 166.096 519.639 194.011 527.557 194.011C528.02 194.011 528.484 193.911 528.948 193.718C532.231 192.359 535.382 186.457 537.746 180.779C540.055 175.217 541.608 169.872 541.801 169.193L541.824 169.123C542.712 177.852 539.328 204.462 538.286 204.092C549.556 207.977 563.421 208.78 576.924 206.347L577.017 206.323C579.898 205.806 582.756 205.142 585.576 204.323C578.191 193.609 575.951 174.746 579.736 168.396C579.767 168.667 579.821 168.998 579.899 169.385C581.969 179.882 600.65 232.444 600.82 232.405C602.852 231.926 609.727 230.476 609.704 230.314C607.016 210.315 589.583 140.197 581.007 133.818C573.667 128.357 565.439 127.055 565.377 127.063L556.264 127.233C556.21 127.233 541.614 132.309 537.559 140.92C533.923 148.642 523.593 171.392 523.593 171.392C523.493 171.655 523.138 171.693 522.99 171.454L511.022 150.849C510.916 150.68 503.733 156.109 503.779 156.248Z" fill="#FFAFDB"/>
<path d="M565.375 127.075C565.128 127.469 564.872 127.835 564.616 128.165C562.136 131.359 559.4 131.478 556.261 127.268C556.463 126.28 556.984 122.903 557.359 120.771C557.497 119.929 557.616 119.28 557.68 119.05L564.433 118.547L565.375 127.075Z" fill="#F9A78D"/>
<path d="M565.375 127.075C565.128 127.469 564.872 127.835 564.616 128.165C564.405 126.271 563.719 122.757 561.633 122.72C558.915 122.675 557.497 120.945 557.359 120.771C557.497 119.929 557.616 119.28 557.68 119.05L564.433 118.547L565.375 127.075Z" fill="#F1BABB"/>
<path d="M579.899 169.379L579.736 168.391C579.767 168.661 579.821 168.993 579.899 169.379Z" fill="#DB85B4"/>
<path d="M579.736 205.69L585.576 204.323C578.191 193.609 575.965 174.835 579.75 168.485L577.82 162.752C573.291 171.534 570.509 184.625 579.736 205.69ZM528.947 193.718C532.23 192.358 535.381 186.457 537.745 180.779L541.8 169.192L541.823 169.122C540.065 162.124 540.419 158.631 541.321 152.758C536.977 160.193 538.425 186.07 528.947 193.718Z" fill="#F55AB0"/>
<path d="M606.953 348.031L610.913 353.092L616.625 363.935L614.714 365.405L606.834 357.915L607.674 365.94C607.901 368.101 607.499 370.277 605.889 371.736C601.643 375.584 592.634 382.079 590.129 379.279C587.554 376.402 596.299 370.124 596.476 364.87C596.647 359.782 596.606 353.31 596.606 353.31L606.953 348.031ZM554.277 360.611L556.169 366.896L554.845 377.515L552.742 377.614L550.839 368.314L547.435 374.482C546.518 376.144 545.144 377.501 543.263 377.742C538.3 378.377 528.604 378.531 528.207 375.274C527.799 371.928 537.198 371.798 539.948 368.124C542.611 364.565 546.347 360.37 546.347 360.37L554.277 360.611Z" fill="#5971A0"/>
<path d="M554.583 118.979C563.829 126.85 569.034 112.563 569.034 112.563C569.034 112.563 573.143 110.669 571.521 106.916C570.084 103.592 566.502 107.693 566.502 107.693C561.625 107.693 557.748 103.463 555.72 100.66C555.007 99.6701 553.486 99.8885 553.104 101.039C552.182 103.831 551.045 108.263 551.439 112.284C551.696 114.867 552.591 117.278 554.583 118.979Z" fill="#F9A78D"/>
<path d="M1046.14 145.202C1046.14 145.202 1079.28 172.329 1090.92 170.14C1096 169.182 1101.7 164.273 1106.74 157.83C1114.09 148.444 1113.31 143.287 1113.94 134.921C1114.75 124.062 1104.33 119.55 1099.47 129.138C1093.74 140.468 1092.48 141.227 1089.92 146.493C1088.97 148.454 1088.1 149.832 1087.23 150.494C1082.65 153.967 1052.03 138.246 1052.03 138.246C1052.03 138.246 1050.59 131.577 1047.81 130.234C1043.53 128.167 1048.32 136.008 1046.53 136.402C1042.63 137.263 1033.71 123.679 1032.49 126.877C1029.13 135.677 1037.88 144.406 1046.14 145.202Z" fill="#F9A78D"/>
<path d="M1048.67 141.302L1051.1 138.864C1051.36 138.607 1051.36 138.192 1051.1 137.936L1032.6 119.427C1032.34 119.17 1031.92 119.17 1031.67 119.427L1029.23 121.865C1028.97 122.122 1028.97 122.537 1029.23 122.794L1047.74 141.301C1047.99 141.559 1048.41 141.559 1048.67 141.302Z" fill="#060A1A"/>
<path d="M1083.44 294.73C1084.67 302.488 1085.22 309.391 1085.22 315.757C1085.25 332.021 1082.17 356.738 1077.59 372.086L1069.43 370.413C1069.43 370.413 1062.21 326.882 1058.96 304.668C1058.12 299.03 1057.54 294.011 1057.35 290.252C1056.24 268.79 1074.82 210.261 1076.01 206.472L1076.06 206.326L1076.08 206.272L1109.75 205.109C1122.99 248.909 1100.97 257.273 1083.44 294.73Z" fill="#F9A78D"/>
<path d="M1102.69 261.895C1097 271.04 1089.92 280.896 1083.44 294.731C1084.56 301.758 1085.91 309.081 1087.46 317.618L1058.33 318.624C1057.49 312.986 1057.54 294.011 1057.35 290.252C1056.23 268.79 1074.82 210.261 1076.01 206.472L1076.06 206.326L1076.08 206.272L1109.75 205.109C1118.11 232.742 1112.43 246.262 1102.69 261.895Z" fill="#3B2F85"/>
<path d="M1104.38 262.422C1098.41 271.387 1091.02 281.019 1084.12 294.646C1085.02 301.704 1086.14 309.066 1087.42 317.647L1082.05 317.665C1082.25 309.378 1076.87 294.974 1074.39 295.075C1076.6 294.836 1101.5 259.024 1104.81 245.898L1104.38 262.422Z" fill="#2A2166"/>
<path d="M1095.75 379.463L1120.67 360.81C1120.67 360.81 1111.09 334.833 1102.62 317.1C1100.61 312.861 1098.67 309.113 1096.92 306.27C1084.44 285.986 1094.54 199.797 1094.54 199.797L1121.25 205.667C1137.96 229.518 1126.86 254.864 1121.73 281.184C1119.95 290.307 1120.94 299.699 1124.17 308.417C1124.82 310.173 1125.4 311.936 1125.93 313.727C1129.59 326.219 1130.34 340.091 1128.96 362.303L1130.03 377.152L1095.75 379.463Z" fill="#F9A78D"/>
<path d="M1127.38 313.566L1118.88 315.405L1101.62 319.135C1099.62 314.897 1098.67 309.11 1096.92 306.268C1084.44 285.984 1092.62 199.023 1092.62 199.023L1120.12 205.396L1121.25 205.664C1137.4 228.717 1127.57 253.167 1122.26 278.543C1120.09 288.898 1121.22 299.718 1125.72 309.292C1126.38 310.698 1126.95 312.116 1127.38 313.566Z" fill="#493D93"/>
<path d="M1127.38 313.56L1118.88 315.4C1117.24 310.928 1115.11 302.655 1114.23 297.187C1111.9 282.74 1119.1 265.399 1123.41 239.741C1126.59 220.837 1112.79 208.275 1112.79 208.275L1120.12 205.391L1121.25 205.658C1137.4 228.712 1127.58 253.162 1122.26 278.538C1120.09 288.893 1121.22 299.713 1125.72 309.287C1126.38 310.692 1126.95 312.111 1127.38 313.56Z" fill="#3B2F85"/>
<path d="M1130.45 147.768C1130.22 165.009 1125.97 194.903 1124.36 205.656C1124.13 207.215 1123.27 208.559 1122.05 209.402C1121.38 209.868 1120.6 210.19 1119.75 210.315C1112.03 211.462 1104.47 212.091 1097.1 212.071C1090.47 212.071 1084 211.57 1077.71 210.477C1075.25 210.046 1073.37 208.075 1073.1 205.602C1072.22 197.466 1074.78 179.615 1074.36 162.249C1074.1 151.264 1077.54 123.144 1098.06 118.719L1110.08 118.609C1123.55 122.104 1129.2 132.409 1130.13 139.613C1130.42 141.747 1130.51 144.542 1130.45 147.768Z" fill="#676767"/>
<path d="M1068.19 362.908C1055.35 367.592 1042.99 366.847 1041.91 378.349L1082.08 377.627C1082.64 372.753 1081.91 367.903 1079.89 363.075L1068.19 362.908ZM1120.81 360.922C1108.41 366.676 1091.93 368.402 1091.83 379.954L1130.91 378.776C1131.05 373.874 1131.6 366.098 1129.19 361.458L1120.81 360.922Z" fill="#5971A0"/>
<path d="M1101.8 108.117C1105.72 109.326 1107.3 111.281 1112.3 109.02C1119.92 105.579 1126.34 92.4011 1116.23 86.4417C1115.53 84.3555 1114.83 83.5431 1112.16 82.9638C1109.5 82.3854 1106.77 83.5451 1103.1 83.4821C1099.42 83.4192 1094.23 79.6383 1091.03 84.9791C1087.82 90.3199 1095.76 94.4725 1099.74 97.1026C1103.72 99.7316 1102.43 104.269 1101.8 108.117Z" fill="#060A1A"/>
<path d="M1110.25 118.643C1105.87 123.016 1101.75 123.854 1098.06 118.721L1099.1 110.286L1099.53 106.734H1109.21L1109.39 108.937L1110.25 118.643Z" fill="#F9A78D"/>
<path d="M1109.53 110.503C1107.14 113.381 1100.55 114.213 1098.77 112.98L1099.53 106.732L1109.26 102.648L1109.53 110.503Z" fill="#F9A78D"/>
<path d="M1094.57 89.8143C1092.79 94.8334 1091.05 105.93 1095.31 110.057C1098 112.669 1107.79 111.659 1109.79 104.475C1112.15 102.766 1113.88 98.5995 1111.7 96.7091C1110.15 95.3616 1108.17 98.9221 1105.47 98.333C1104.44 98.1097 1107.59 91.2552 1104.39 90.067C1101.19 88.8799 1097.8 91.4529 1094.57 89.8143ZM1044.48 147.638C1044.48 147.638 1074.3 178.366 1086.12 177.519C1091.28 177.147 1097.5 172.919 1103.25 167.093C1111.62 158.606 1118.97 146.732 1120.55 138.492C1122.6 127.797 1105.21 128.788 1099.29 137.76C1092.3 148.362 1090.96 148.973 1087.82 153.912C1086.66 155.752 1085.64 157.022 1084.7 157.582C1079.75 160.51 1051.12 141.399 1051.12 141.399C1051.12 141.399 1050.45 134.611 1047.84 132.958C1043.82 130.418 1047.69 138.754 1045.87 138.942C1041.9 139.352 1034.58 124.84 1033.01 127.877C1028.66 136.236 1036.37 145.906 1044.48 147.638Z" fill="#F9A78D"/>
<path d="M1083.69 155.894L1103.43 173.338C1112.67 163.968 1121.62 152.161 1123.36 143.062C1125.62 131.255 1109.8 120.723 1097.8 136.997C1091.45 145.611 1087.16 150.44 1083.69 155.894Z" fill="#EAEAEA"/>
<path d="M925.342 150.424C925.988 147.884 927.066 145.475 927.811 142.963C929.485 137.326 929.45 131.338 930.443 125.542C931.436 119.747 933.782 113.728 938.736 110.559L935.057 101.854C931.227 98.7165 931.601 92.1207 935.211 88.7323C938.819 85.3439 944.611 85.0223 949.112 87.0829C951.142 88.0123 953.036 89.4415 954.02 91.446C954.717 92.8643 954.916 94.4734 955.485 95.9478C956.591 98.8149 958.983 100.946 961.094 103.179C963.204 105.412 965.199 108.119 965.153 111.191C965.123 113.269 964.102 116.142 963.881 118.209C963.318 123.45 968.731 124.592 972.509 128.267C976.288 131.941 979.11 138.965 978.129 144.145C977.689 146.466 976.282 148.463 975.155 150.539C973.913 152.826 972.982 155.281 972.395 157.817C971.677 160.92 971.466 164.168 970.246 167.111C969.028 170.054 966.435 172.748 963.249 172.811C959.198 172.891 956.198 168.893 952.247 167.992C947.67 166.949 943.239 170.248 938.558 170.592C933.878 170.936 929.281 168.102 926.899 164.058C924.516 160.013 924.185 154.972 925.342 150.424Z" fill="#060A1A"/>
<path d="M960.387 200.227C953.792 182.775 952.398 173.161 959.737 157.869C969.543 137.454 957.921 124.819 957.921 124.819L947.121 120.25H937.965C927.165 124.15 913.631 127.552 922.463 157.391C928.158 176.639 920.876 186.522 913.631 200.227H960.387Z" fill="#3E3279"/>
<path d="M960.387 201.001C953.792 183.379 952.398 173.672 959.737 158.232C969.543 137.62 957.921 124.863 957.921 124.863L947.121 120.25C944.241 124.932 941.236 126.218 937.965 120.25C925.119 123.309 914.3 128.684 922.463 157.75C927.938 177.25 920.876 187.164 913.631 201.002H960.387V201.001Z" fill="white"/>
<path d="M926.593 286.129C926.593 287.562 926.593 288.882 926.611 290.066C926.65 294.329 927.606 298.496 929.383 302.376C933.149 310.5 940.126 329.023 944.943 362.665C944.943 362.665 954.519 365.781 955.15 362.57C963.045 322.868 956.106 311.858 950.925 293.698C950.983 291.099 951.232 288.575 951.595 286.129C955.475 259.846 974.113 240.559 960.388 200.226C960.331 200.035 960.273 199.825 960.197 199.633L950.869 199.958H934.143C934.125 200.053 934.105 200.13 934.086 200.225C929.308 222.226 927.511 247.593 926.899 266.861V266.879C926.65 274.412 926.593 281.006 926.593 286.129Z" fill="#F9A78D"/>
<path d="M904.514 362.664C910.096 331.698 909.504 322.389 904.725 297.769C907.65 293.583 910.498 289.76 913.251 286.128C918.278 279.495 922.942 273.455 926.898 266.861C935.787 251.989 941.063 234.232 938.788 200.225C938.788 200.13 938.788 200.053 938.768 199.958V199.863L913.824 199.633C913.69 199.825 913.537 200.015 913.403 200.226C893.14 228.459 886.489 262.808 883.162 286.129C882.627 289.875 882.187 293.335 881.786 296.451C881.577 298.172 881.671 299.929 882.092 301.612C887.425 322.41 894.229 342.499 894.172 362.666H904.514V362.664Z" fill="#F9A78D"/>
<path d="M883.16 286.13C906.926 285.089 917.973 288.633 941.791 287.411C948.66 274.095 956.153 254.667 956.828 247.357C958.809 226.077 940.62 235.638 935.966 222.029C934.374 217.363 933.973 209.364 934.433 199.633H913.4C893.138 228.057 886.486 262.653 883.16 286.13Z" fill="#493D93"/>
<path d="M935.967 222.03C940.621 235.639 958.809 226.078 956.829 247.358C956.154 254.667 948.661 274.096 941.792 287.412C944.812 287.26 948.08 286.855 951.594 286.131C955.479 259.657 974.114 240.252 960.391 199.633H934.434C933.975 209.365 934.375 217.364 935.967 222.03Z" fill="#382D80"/>
<path d="M934.434 199.633H960.391L947.633 122.273C941.462 143.547 935.526 176.491 934.434 199.633Z" fill="#E5E0FF"/>
<path d="M875.288 135.006C875.288 135.006 875.689 136.44 876.415 138.753C879.397 148.33 887.999 173.16 897.557 176.753C904.802 179.467 923.189 157.6 923.305 155.134L926.21 124.951C915.715 136.879 906.216 148.75 900.711 160.238C896.659 151.005 888.955 144.219 884.387 135.732C883.794 134.681 883.278 133.591 882.82 132.482C882.82 132.482 886.317 125.525 884.292 123.384C882.495 121.491 880.106 126.691 879.361 125.946C878.538 125.123 875.461 112.182 873.204 115.45C868.195 122.733 875.288 135.006 875.288 135.006ZM937.775 112.431L937.87 116.464L937.966 120.249C937.774 127.111 946.472 126.92 947.122 120.249L945.497 112.813L944.675 109.105L944.388 107.805L941.961 109.506L937.775 112.431Z" fill="#F9A78D"/>
<path d="M940.966 219.093C941.482 222.61 944.292 225.343 947.809 225.841C951.001 226.299 954.212 226.414 957.462 226.185C960.73 225.993 964 225.458 967.345 224.599C957.424 192.715 963.522 177.805 963.981 158.709V158.652C964.191 149.249 963.045 138.811 957.922 124.819L947.122 120.25C947.848 157.561 935.308 181.302 940.966 219.093ZM876.415 138.752C879.397 148.329 887.999 173.159 897.557 176.752C899.659 177.536 902.679 176.274 905.929 173.98C909.369 171.591 913.078 168.074 916.155 164.71C920.227 160.275 923.247 156.128 923.304 155.133L927.3 123.804C915.964 131.698 908.012 146.293 900.863 158.45C896.811 149.217 888.955 144.218 884.387 135.731L876.415 138.752Z" fill="#FF73C0"/>
<path d="M937.966 120.253C937.966 120.253 927.797 119.521 921.35 129.981C911.274 146.325 919.893 158.397 913.632 186.669C911.381 196.834 905.253 207.326 898.383 223.346C905.026 225.188 911.67 227.005 918.44 226.047C921.713 225.584 924.384 223.167 925.162 219.955C934.349 182.025 927.702 160.273 937.966 120.253Z" fill="#FF73C0"/>
<path d="M950.978 148.742C964.827 173.302 945.975 199.96 957.463 226.185C960.731 225.994 964.001 225.459 967.346 224.599C957.426 192.716 963.523 177.806 963.982 158.71V158.653L950.978 148.742Z" fill="#F55AB0"/>
<path d="M960.712 198.508C959.795 199.77 959.89 201.49 960.636 202.847C961.744 204.854 963.197 207.684 963.197 208.754C963.197 210.475 960.96 214.794 961.591 216.056C964.515 221.925 974.436 211.736 969.523 200.688C969.523 200.688 972.524 198.471 976.539 195.049C984.453 188.301 996.323 176.928 996.877 168.9C997.832 154.926 957.921 124.82 957.921 124.82L960.31 154.085C968.396 161.463 971.97 163.891 982.427 170.046C976.425 174.691 971.895 181.285 967.766 187.708C965.357 191.512 963.063 195.26 960.712 198.508Z" fill="#F9A78D"/>
<path d="M959.102 154.53C967.188 161.909 971.971 163.892 982.427 170.047C976.425 174.692 971.895 181.286 967.766 187.709L976.539 195.049C984.453 188.301 996.323 176.928 996.877 168.9C997.832 154.926 957.921 124.82 957.921 124.82L959.102 154.53Z" fill="#FF73C0"/>
<path d="M905.929 173.985C909.369 171.596 913.078 168.079 916.155 164.715C916.155 164.715 916.461 155.768 916.805 147.836C908.806 152.858 914.301 164.685 905.929 173.985Z" fill="#F55AB0"/>
<path d="M904.751 361.346L906.844 368.188L905.533 378.826L903.428 378.929L901.507 369.616L898.106 375.799C897.19 377.464 895.816 378.827 893.931 379.071C888.962 379.715 879.25 379.882 878.848 376.621C878.434 373.27 887.847 373.127 890.597 369.442C893.259 365.875 894.162 361.078 894.162 361.078L904.751 361.346ZM954.928 361.346L957.021 368.188L955.711 378.826L953.604 378.929L951.683 369.616L948.282 375.799C947.367 377.464 945.993 378.827 944.108 379.071C939.138 379.715 929.427 379.882 929.025 376.621C928.612 373.27 938.025 373.127 940.774 369.442C943.436 365.875 944.339 361.078 944.339 361.078L954.928 361.346Z" fill="#5971A0"/>
<path d="M937.775 112.435L937.87 116.467C938.979 116.583 940.527 116.467 942.458 115.703C944.139 115.034 945.038 113.945 945.497 112.817L944.675 109.109L941.96 109.511L937.775 112.435Z" fill="#F9A78D"/>
<path d="M935.894 95.0391C935.894 95.0391 939.578 102.048 945.509 102.496C945.509 102.496 949.982 101.109 950.63 102.407C952.068 105.283 947.306 107.799 947.306 107.799C946.528 111.38 940.994 116.053 937.152 114.808C930.229 112.564 935.894 95.0391 935.894 95.0391Z" fill="#F9A78D"/>
<path d="M880.174 134.689L884.002 133.258L875.696 111.039L871.868 112.469L880.174 134.689Z" fill="#060A1A"/>
<path d="M609.575 62C601.055 62 594.148 68.764 594.148 77.1089C594.148 80.0094 594.985 82.7181 596.431 85.0191L593 93L602.736 90.6523C604.797 91.6527 607.118 92.2178 609.574 92.2178C618.094 92.2178 625 85.4532 625 77.1089C625 68.7646 618.094 62 609.575 62Z" fill="#FF4949"/>
<path d="M618.566 73.4491C617.684 71.7479 615.453 70.5449 613.296 71.1657C610.985 71.8306 610.1 74.3206 610.002 74.6075C610.003 74.7164 610.003 74.8254 610.004 74.9343C610.002 74.8254 609.999 74.7164 609.997 74.6075C609.9 74.3206 609.015 71.8306 606.704 71.1657C604.547 70.5455 602.316 71.7479 601.434 73.4491C599.817 76.5665 603.214 80.4261 603.598 80.8624C605.897 83.4738 608.936 83.9059 610.034 83.9946C610.058 83.9964 610.08 83.9982 610.102 84C610.13 83.9976 610.16 83.9947 610.191 83.9911C611.29 83.8756 614.185 83.3857 616.402 80.8624C616.794 80.416 620.181 76.5623 618.566 73.4491Z" fill="white"/>
<path d="M981.092 54C972.307 54 965.184 61.2007 965.184 70.0837C965.184 73.1715 966.047 76.0543 967.538 78.5041L964 87L974.04 84.5007C976.165 85.5655 978.559 86.1673 981.092 86.1673C989.877 86.1673 997 78.9666 997 70.0837C997 61.2007 989.878 54 981.092 54Z" fill="#FFA412"/>
<path d="M986.392 74.9344C985.906 74.9344 985.471 75.1404 985.176 75.4654L977.484 71.6413C977.574 71.4056 977.626 71.1523 977.626 70.8869C977.626 70.6114 977.571 70.3489 977.474 70.1062L985.205 65.5655C985.499 65.8725 985.921 66.0667 986.392 66.0667C987.28 66.0667 988 65.38 988 64.5334C988 63.6867 987.28 63 986.392 63C985.504 63 984.783 63.6867 984.783 64.5334C984.783 64.6769 984.805 64.8158 984.844 64.9476L977.105 69.4929C976.681 68.9981 976.036 68.6813 975.313 68.6813C974.036 68.6813 973 69.6685 973 70.8863C973 72.104 974.036 73.0912 975.313 73.0912C976.046 73.0912 976.698 72.7651 977.123 72.2574L984.834 76.0909C984.802 76.2117 984.783 76.3371 984.783 76.4666C984.783 77.3133 985.504 78 986.392 78C987.28 78 988 77.3133 988 76.4666C988 75.62 987.28 74.9344 986.392 74.9344Z" fill="white"/>
<path d="M776.986 73.1797C782.133 73.1797 786.306 77.3524 786.306 82.4995C786.306 84.2888 785.801 85.9592 784.927 87.379C786.115 88.2594 786.584 90.2401 787 92.3019C785.225 91.3774 783.286 90.8429 781.118 90.8536C779.872 91.4706 778.47 91.8194 776.986 91.8194C771.839 91.8194 767.666 87.6466 767.666 82.4995C767.666 77.3524 771.839 73.1797 776.986 73.1797Z" fill="#00D09B"/>
<path d="M758 86.1222C759.98 84.8504 761.949 83.9913 763.882 84.6739C764.823 85.14 765.852 85.4532 766.94 85.5778C766.641 84.6041 766.48 83.57 766.48 82.4996C766.48 76.9426 770.816 72.3791 776.282 72.0154C774.727 69.0348 771.608 67 768.014 67C762.867 67 758.694 71.172 758.694 76.3198C758.694 78.1091 759.199 79.7802 760.073 81.1993C758.673 82.032 758.18 83.8981 758 86.1222Z" fill="#00D09B"/>
<path d="M781.831 82.3644C781.831 81.7922 781.367 81.3281 780.795 81.3281C780.222 81.3281 779.758 81.7922 779.758 82.3644C779.758 82.9366 780.222 83.4006 780.795 83.4006C781.367 83.4006 781.831 82.9366 781.831 82.3644ZM778.37 82.3644C778.37 81.7922 777.906 81.3281 777.333 81.3281C776.761 81.3281 776.297 81.7922 776.297 82.3644C776.297 82.9366 776.761 83.4006 777.333 83.4006C777.906 83.4006 778.37 82.9366 778.37 82.3644ZM774.908 82.3644C774.908 81.7922 774.444 81.3281 773.872 81.3281C773.3 81.3281 772.836 81.7922 772.836 82.3644C772.836 82.9366 773.3 83.4006 773.872 83.4006C774.444 83.4006 774.908 82.9366 774.908 82.3644Z" fill="white"/>
<path d="M358.625 350.437C358.851 353.401 355.534 356.508 355.355 359.555C367.963 362.25 380.679 364.444 393.39 366.67C391.23 356.396 378.491 356.976 370.092 353.666C370.092 302.487 391.654 242.987 379.779 192.515C375.81 192.425 375.525 193.613 370.864 193.422C366.203 193.231 358.228 192.676 352.876 192.344C351.297 239.054 358.312 346.338 358.625 350.437Z" fill="#F9A78D"/>
<path d="M375.726 193.427C377.706 193.508 378.896 193.34 379.915 193.127C379.868 192.926 379.826 192.722 379.779 192.52C376.861 192.455 375.929 193.078 373.789 193.337C374.479 193.372 375.13 193.403 375.726 193.427Z" fill="#F9A78D"/>
<path d="M360.216 359.555C360.396 356.508 363.713 353.401 363.486 350.437C363.174 346.347 356.189 239.526 357.727 192.654C355.996 192.541 354.337 192.434 352.875 192.344C351.296 239.054 358.311 346.338 358.624 350.437C358.85 353.401 355.533 356.508 355.354 359.555C367.963 362.25 380.678 364.444 393.389 366.67C393.324 366.364 393.25 366.068 393.167 365.78C382.151 363.85 371.144 361.89 360.216 359.555Z" fill="#F9A78D"/>
<path d="M284.663 303.238C281.834 302.255 278.539 305.327 275.691 304.604C278.245 316.284 282.004 323.459 287.352 334.198C290.617 327.531 289.557 320.957 290.786 313.834C351.868 310.509 380.092 248.942 371.216 193.431C363.722 193.197 356.228 192.547 348.763 192.195C328.948 220.72 344.135 290.24 284.663 303.238Z" fill="#F9A78D"/>
<path d="M277.306 307.864C280.154 308.587 283.449 305.514 286.278 306.498C345.749 293.499 330.562 223.979 350.379 195.455C357.464 195.789 364.574 196.386 371.684 196.647C371.54 195.573 371.388 194.501 371.217 193.431C363.723 193.197 356.229 192.547 348.764 192.195C328.948 220.72 344.135 290.239 284.663 303.238C281.835 302.255 278.54 305.327 275.691 304.604C278.018 315.246 281.35 322.156 285.968 331.42C282.176 323.694 279.353 317.225 277.306 307.864Z" fill="#F9A78D"/>
<path d="M384.933 357.193C388.054 358.713 398.261 360.895 395.767 366.798C393.272 372.703 362.91 366.855 357.567 363.749C352.224 360.644 357.168 354.508 358.788 350.913C363.587 360.501 377.652 365.661 386.982 361.655C390.491 360.15 385.541 357.817 384.933 357.193ZM289.431 326.138C289.274 328.289 291.302 339.782 286.017 338.694C280.731 337.606 271.559 309.052 273.78 303.625C276.317 297.426 282.53 302.381 284.577 303.21C276.996 308.492 280.98 324.781 286.924 328.792C288.992 330.188 289.479 327.124 289.431 326.138ZM311.404 268.518C311.404 268.518 318.525 276.386 325.216 274.758C325.216 274.758 332.63 285.992 344.276 278.234C353.1 283.694 361.914 283.694 370.739 278.234C382.373 285.992 389.798 274.758 389.798 274.758C396.491 276.387 403.61 268.518 403.61 268.518C397.22 238.447 383.408 212.762 380.06 191.396L348.009 192.456C338.101 202.317 331.757 243.471 311.404 268.518ZM365.16 94.1484C369.054 98.2912 370.692 105.656 367.46 110.658C364.914 115.879 364.965 121.987 365.466 127.692C364.221 121.986 364.093 115.634 366.781 110.304C369.973 105.508 368.532 98.4693 365.16 94.1484Z" fill="#5971A0"/>
<path d="M398.088 81.3026C398.139 81.2505 399.086 80.6623 399.103 77.7116C399.108 76.8333 397.35 71.9243 399.034 70.9457C400.308 70.205 401.533 74.7196 401.856 74.6075C404.6 73.6603 405.595 64.3597 409.038 65.3924C410.934 65.9609 409.192 74.7413 406.214 79.1319C405.884 79.6198 405.904 83.6081 405.904 83.6081L398.088 81.3026Z" fill="#F9A78D"/>
<path d="M366.386 110.165C369.046 104.511 369.944 94.7843 360.885 91.5296C354.296 89.1622 348.756 89.0658 342.763 93.5873C336.769 98.1087 334.446 108.047 335.717 115.169C337.24 123.703 327.148 131.107 331.086 138.033C336.376 147.335 362.921 139.364 372.02 137.983C366.057 128.257 360.228 123.252 366.386 110.165Z" fill="#060A1A"/>
<path d="M362.566 151.116C372.578 147.617 390.973 131.149 395.558 123.379C397.661 118.347 404.809 91.0587 406.62 84.0931C406.867 83.143 406.353 82.1682 405.435 81.8171C403.399 81.0371 401.307 80.4372 399.151 80.0467C398.227 79.8795 397.315 80.4008 396.997 81.286L384.882 115.088C380.214 118.107 351.454 130.623 348.684 140.47C346.468 148.352 352.727 154.556 362.566 151.116Z" fill="#FFC15E"/>
<path d="M381.661 194.529C381.6 194.78 381.458 195.007 381.244 195.17C373.776 200.92 357.292 195.701 346.872 194.924C345.923 194.854 345.205 194.026 345.271 193.082C346.866 170.495 329.838 147.158 351.299 129.8C354.525 129.721 357.904 128.736 360.982 129.705C377.125 134.787 379.842 150.836 380.32 166.433C380.608 175.95 380.064 185.299 381.226 191.886C381.231 191.913 381.236 191.939 381.241 191.966C381.271 192.148 381.304 192.325 381.339 192.502C381.436 192.988 381.542 193.458 381.66 193.909C381.715 194.115 381.715 194.328 381.661 194.529Z" fill="#FF9D00"/>
<path d="M380.321 166.436C380.221 175.353 380.634 190.968 381.227 191.888C375.861 186.673 375.011 177.291 369.817 174.242C362.622 170.018 353.963 162.328 353.963 162.328L362.551 163.12L380.321 166.436Z" fill="#FF9D00"/>
<path d="M350.831 131.893C350.383 131.655 349.976 131.431 349.632 131.236C350.266 128.266 350.715 121.883 350.863 118.002C350.9 116.995 350.918 116.161 350.913 115.594C352.669 117.059 355.9 117.795 357.183 119.751C358.466 121.705 359.438 128.944 359.533 129.353C361.246 136.59 354.551 133.845 350.831 131.893Z" fill="#F9A78D"/>
<path d="M358.477 124.204C358.477 124.204 354.967 123.813 353.091 123.727C350.83 123.624 350.839 130.103 350.831 131.892C350.383 131.654 349.976 131.43 349.632 131.235C350.266 128.265 350.715 121.881 350.863 118C353.835 120.413 358.477 124.204 358.477 124.204Z" fill="#F9A78D"/>
<path d="M364.811 123.393C369.477 121.305 368.324 105.815 364.449 100.891C360.492 105.935 353.443 105.827 347.761 104.033C348.237 105.308 348.045 109.49 349.026 111.109C348.105 109.589 344.849 109.792 345.421 112.786C345.941 115.516 347.647 116.143 350.047 116.961C352.168 122.716 358.597 126.174 364.811 123.393Z" fill="#F9A78D"/>
<path d="M462.104 106.762C457.403 103.055 452.379 100.285 447.091 98.2426C446.287 97.9348 445.478 97.6377 444.658 97.3623C436.177 94.4854 427.061 93.374 417.585 93.2687C416.747 93.2599 415.899 93.2569 415.054 93.2638C413.949 93.2717 412.836 93.2904 411.719 93.3248C411.268 93.3376 410.816 93.3494 410.361 93.373C409.884 93.3838 409.404 93.4054 408.919 93.432C408.497 93.4458 408.071 93.4635 407.646 93.4881C407.17 91.9144 406.729 90.3318 406.319 88.7384C404.099 80.0968 402.84 71.0981 402.612 61.709C402.57 60.0605 402.56 58.4032 402.585 56.7361C403.003 56.6584 403.421 56.5816 403.838 56.5039C404.304 56.4144 404.77 56.3259 405.232 56.2423C405.688 56.1548 406.144 56.0672 406.6 55.9787C407.804 55.7486 409.006 55.5076 410.203 55.2587C411.031 55.0846 411.853 54.9066 412.674 54.7188C421.43 52.7457 429.844 49.9977 437.102 44.5605C437.811 44.0294 438.512 43.4697 439.193 42.8874C443.461 39.2561 447.269 34.5664 450.439 28.3906L462.104 106.762Z" fill="#E6E8FA"/>
<path d="M460.995 99.3393L450.439 28.3906C450.087 29.0772 449.725 29.7401 449.358 30.3902L460.995 99.3393Z" fill="#D8DAEB"/>
<path d="M462.102 106.761C448.156 95.7531 431.284 92.9499 413.289 93.2863C412.768 93.2932 412.244 93.3109 411.72 93.3227C411.616 93.3276 411.514 93.3267 411.409 93.3306C411.063 93.3434 410.712 93.3522 410.363 93.3699C410.117 93.3738 409.871 93.3827 409.626 93.3965C409.391 93.4034 409.154 93.4162 408.92 93.429C408.588 93.4398 408.252 93.4516 407.918 93.4722C407.827 93.4742 407.737 93.4771 407.647 93.484C407.169 91.9103 406.731 90.3268 406.318 88.7344C406.482 89.2645 406.642 89.7956 406.816 90.3199C406.849 90.315 406.877 90.316 406.91 90.312C407.3 90.2776 407.694 90.2432 408.083 90.2196C408.291 90.2009 408.498 90.1822 408.707 90.1635C408.979 90.1409 409.252 90.1232 409.522 90.1064C409.845 90.0819 410.168 90.0573 410.488 90.0376C410.617 90.0248 410.743 90.0179 410.872 90.0101C411.357 89.9776 411.847 89.95 412.33 89.9235C430.291 88.9203 447.196 91.0959 461.333 101.599L462.102 106.761Z" fill="#CFD2EB"/>
<path d="M491.686 62.2416C494.883 85.4597 485.535 105.926 470.807 107.954C456.078 109.982 441.547 92.804 438.349 69.5859C435.153 46.3678 444.501 25.9017 459.23 23.8736C473.958 21.8454 488.489 39.0235 491.686 62.2416Z" fill="#7171E0"/>
<path d="M379.885 62.75L384.145 93.6842C380.415 93.9636 371.723 96.0251 368.122 95.014C358.718 93.3675 352.821 82.3289 356.873 73.527C360.224 64.2342 371.646 63.7503 379.885 62.75Z" fill="#E6E8FA"/>
<path d="M383.85 91.5525L384.144 93.6888C380.414 93.9681 371.722 96.0296 368.121 95.0185C358.717 93.372 352.82 82.3335 356.872 73.5315C357.519 72.0217 358.42 70.6182 359.504 69.3828C354.041 77.9261 359.542 90.6092 369.418 92.5035C372.988 93.6169 380.17 91.9134 383.85 91.5525Z" fill="#CFD2EB"/>
<path d="M487.779 62.7721C490.508 82.593 483.068 99.9874 471.158 101.628C466.782 102.231 462.41 100.621 458.505 97.3622C455.681 95.0154 453.103 91.8139 450.923 87.9642C450.152 86.601 449.436 85.1601 448.774 83.6464C448.738 83.5618 448.7 83.4723 448.663 83.3828C446.78 79.0088 445.384 74.0399 444.65 68.7109C444.07 64.4963 443.948 60.3879 444.237 56.5215C444.281 55.9029 444.336 55.2921 444.403 54.6901C444.404 54.6655 444.41 54.6341 444.412 54.6095C444.879 50.3703 445.845 46.4557 447.234 43.0466C450.218 35.7013 455.159 30.7009 461.275 29.8589C473.186 28.2193 485.049 42.9562 487.779 62.7721Z" fill="#BDC3FF"/>
<path d="M410.998 129.592C410.396 129.675 409.826 129.293 409.675 128.705C407.903 121.791 404.235 117.94 402.032 112.236C399.306 105.178 400.593 95.4858 393.806 89.3906L380.031 91.287L394.43 130.346C394.705 131.093 394.22 131.903 393.431 132.012C392.761 132.104 392.293 132.722 392.385 133.392L392.986 137.759C393.079 138.428 393.696 138.897 394.366 138.804L411.934 136.385C412.603 136.293 413.072 135.675 412.979 135.006L412.378 130.639C412.286 129.969 411.668 129.5 410.998 129.592Z" fill="#7171E0"/>
<path d="M397.305 136.543C396.635 136.635 396.018 136.167 395.925 135.497L395.324 131.13C395.232 130.46 395.7 129.843 396.37 129.751C397.158 129.643 397.644 128.833 397.369 128.086L383.619 90.7891L380.031 91.2828L394.43 130.342C394.705 131.089 394.22 131.899 393.431 132.007C392.761 132.1 392.293 132.718 392.385 133.387L392.986 137.754C393.079 138.424 393.696 138.892 394.366 138.8L411.934 136.381C412.603 136.289 413.072 135.671 412.979 135.001L412.896 134.397L397.305 136.543Z" fill="#5353C7"/>
<path d="M467.744 96.6397C464.92 94.2939 462.342 91.0914 460.163 87.2417C459.392 85.8785 458.676 84.4376 458.014 82.9239C457.977 82.8393 457.94 82.7498 457.903 82.6603C456.02 78.2863 454.623 73.3174 453.89 67.9884C453.309 63.7738 453.187 59.6654 453.477 55.8C453.521 55.1813 453.576 54.5705 453.643 53.9686C453.645 53.944 453.65 53.9125 453.652 53.8879C454.119 49.6488 455.085 45.7342 456.474 42.3251C458.819 36.5506 462.379 32.2357 466.764 30.241C464.958 29.7532 463.118 29.6125 461.275 29.8663C455.158 30.7082 450.218 35.7077 447.234 43.0539C445.845 46.463 444.879 50.3776 444.412 54.6168C444.411 54.6423 444.405 54.6728 444.403 54.6974C444.336 55.2994 444.281 55.9102 444.237 56.5288C443.947 60.3952 444.07 64.5026 444.65 68.7172C445.384 74.0462 446.78 79.0152 448.663 83.3891C448.7 83.4786 448.738 83.5681 448.774 83.6527C449.436 85.1654 450.152 86.6064 450.923 87.9706C453.102 91.8203 455.681 95.0227 458.505 97.3685C462.411 100.627 466.782 102.237 471.158 101.634C472.468 101.454 473.72 101.073 474.914 100.529C472.428 99.8579 470.007 98.5282 467.744 96.6397Z" fill="#A8AEF0"/>
<path d="M375.816 61.0347C371.813 62.154 369.299 66.6804 369.971 71.5579L372.259 88.1762C372.931 93.0538 376.575 96.7323 380.732 96.7274C387.398 96.6969 395.385 96.9664 401.877 96.9496C406.392 96.9378 409.872 93.1944 408.862 89.3703C406.173 79.1972 404.907 68.9111 404.884 58.441C404.878 55.5847 401.794 53.6058 398.638 54.431C390.801 56.4797 383.447 58.8492 375.816 61.0347Z" fill="#7171E0"/>
<path d="M470.95 74.0741L448.663 83.3905C446.78 79.0166 445.384 74.0476 444.65 68.7186C444.07 64.504 443.948 60.3957 444.237 56.5292C444.281 55.9106 444.336 55.2998 444.403 54.6978C444.404 54.6733 444.41 54.6418 444.412 54.6172L468.784 59.2872L470.95 74.0741Z" fill="white"/>
<path d="M455.552 77.5727C452.634 78.7923 449.278 77.2461 448.356 74.2207C447.477 71.3329 446.797 68.2642 446.358 65.0666C445.877 61.5749 445.715 58.158 445.837 54.8896L444.413 54.6172C444.412 54.6428 444.406 54.6733 444.404 54.6978C444.337 55.2998 444.282 55.9106 444.238 56.5292C443.948 60.3957 444.071 64.504 444.651 68.7186C445.385 74.0476 446.782 79.0166 448.664 83.3905L470.951 74.0741L470.545 71.3054L455.552 77.5727Z" fill="#E6E7F5"/>
<path d="M475.61 66.1588C476.198 70.4265 474.388 74.2014 471.567 74.5899C468.747 74.9785 465.985 71.833 465.397 67.5653C464.809 63.2976 466.619 59.5227 469.44 59.1342C472.26 58.7447 475.023 61.8901 475.61 66.1588Z" fill="#7171E0"/>
<path d="M474.958 66.2475C475.47 69.9703 474.055 73.2397 471.796 73.5505C469.537 73.8613 467.291 71.0965 466.778 67.3737C466.266 63.6519 467.681 60.3825 469.941 60.0707C472.199 59.7599 474.444 62.5257 474.958 66.2475Z" fill="#4A59DB"/>
<path d="M469.854 67.2299C469.697 66.085 470.039 65.0926 470.62 65.0129C471.202 64.9332 471.8 65.7959 471.957 66.9407C472.114 68.0856 471.771 69.078 471.191 69.1587C470.61 69.2374 470.011 68.3748 469.854 67.2299Z" fill="white"/>
<path d="M403.304 92.5913C396.812 92.608 388.825 92.3385 382.159 92.369C378.003 92.3739 374.358 88.6954 373.687 83.8179L371.398 67.1995C371.274 66.2995 371.26 65.4114 371.343 64.5547C370.161 66.4884 369.615 68.9689 369.971 71.5547L372.259 88.1731C372.931 93.0506 376.575 96.7292 380.732 96.7243C387.398 96.6938 395.385 96.9633 401.877 96.9465C406.113 96.9357 409.437 93.6398 408.998 90.0753C407.694 91.5753 405.642 92.5854 403.304 92.5913Z" fill="#5353C7"/>
<path d="M389.128 68.3359L378.169 69.8447C377.197 69.9785 376.3 69.2988 376.167 68.3271L375.959 66.8084C375.825 65.8367 376.504 64.9397 377.476 64.8059L388.43 63.2981C389.402 63.1643 390.299 63.843 390.434 64.8148L390.644 66.3334C390.778 67.3051 390.099 68.2021 389.128 68.3359Z" fill="white"/>
<path d="M390.467 67.0582L378.733 68.6742C377.976 68.7785 377.278 68.2493 377.173 67.4919L376.858 65.1963C376.845 65.1038 376.842 65.0114 376.848 64.9219C376.222 65.1255 375.812 65.75 375.905 66.4238L376.22 68.7194C376.325 69.4768 377.023 70.0059 377.78 69.9017L389.514 68.2857C390.179 68.1942 390.667 67.6454 390.706 67.0002C390.63 67.0248 390.551 67.0464 390.467 67.0582Z" fill="#CFD2EB"/>
<path d="M381.497 75.1067L378.094 75.5749C377.589 75.6447 377.125 75.2916 377.055 74.788L376.789 72.8514C376.719 72.3468 377.072 71.8825 377.577 71.8127L380.981 71.3445C381.484 71.2757 381.95 71.6278 382.018 72.1314L382.284 74.068C382.355 74.5726 382.002 75.0368 381.497 75.1067Z" fill="white"/>
<path d="M381.818 74.6213L378.47 75.0826C377.95 75.1544 377.471 74.7905 377.4 74.2712L377.141 72.3896C377.121 72.249 377.137 72.1122 377.175 71.9844C376.904 72.184 376.744 72.5185 376.794 72.8765L377.052 74.7581C377.124 75.2774 377.603 75.6403 378.122 75.5695L381.471 75.1082C381.849 75.0561 382.142 74.7866 382.248 74.4433C382.125 74.5338 381.98 74.5987 381.818 74.6213Z" fill="#CFD2EB"/>
<path d="M385.947 72.5766C385.778 71.3442 386.639 70.2072 387.872 70.0371C389.104 69.8669 390.241 70.7285 390.411 71.9619C390.581 73.1943 389.719 74.3313 388.486 74.5015C387.253 74.6716 386.116 73.809 385.947 72.5766Z" fill="white"/>
<path d="M388.709 74.1702C387.476 74.3403 386.339 73.4778 386.169 72.2453C386.099 71.7408 386.209 71.2559 386.441 70.8438C386.057 71.3119 385.857 71.9276 385.946 72.5748C386.116 73.8072 387.253 74.6698 388.485 74.4997C389.213 74.3994 389.804 73.9577 390.138 73.3617C389.792 73.7856 389.294 74.0895 388.709 74.1702Z" fill="#CFD2EB"/>
<path d="M371.392 95.322C370.277 95.3309 369.182 95.2276 368.122 95.0151C361.837 87.1869 360.481 73.7533 362.898 66.4857C363.916 65.8474 365.013 65.3173 366.185 64.9219C362.429 72.4491 364.338 86.5987 371.392 95.322Z" fill="#7171E0"/>
<path d="M392.681 128.655C392.681 128.655 393.37 125.3 393.129 124.239C392.888 123.179 391.087 119.785 392.234 117.877C392.798 116.936 394.737 121.416 396.032 119.975C399.052 116.614 398.923 107.146 400.837 107.56C402.86 107.999 406.683 115.321 400.124 125.211C399.345 126.386 399.233 130.515 399.233 130.515L392.681 128.655Z" fill="#F9A78D"/>
<path d="M348.893 158.301C354.992 164.452 378.36 177.296 388.772 174.225C400.499 170.766 400.145 139.073 401.224 131.521C401.346 130.662 400.783 129.856 399.934 129.675L392.753 128.138C391.9 127.956 391.052 128.469 390.817 129.309L382.936 154.306C382.936 154.306 365.428 141.238 356.062 137.846C348.893 135.25 340.289 149.625 348.893 158.301Z" fill="#FFC15E"/>
<path d="M363.753 101.689C363.753 101.689 363.929 106.936 358.625 108.899C358.625 108.899 359.669 106.919 357.271 104.887C357.271 104.887 357.493 108.14 355.647 109.931C353.801 111.722 350.772 114.735 352.703 119.28L351.257 117.842L350.603 106.401L358.179 101.477L363.753 101.689Z" fill="#F9A78D"/>
<path d="M367.197 107.907C367.197 107.907 366.651 103.629 363.753 101.69C363.753 101.69 362.482 106.467 358.509 108.018C358.509 108.018 358.4 105.772 357.271 104.888C357.271 104.888 356.577 108.426 353.148 111.105C349.944 113.608 352.93 119.393 354.087 120.672C354.087 120.672 348.152 117.202 348.813 110.67C348.813 110.67 344.045 106.588 343.963 106.384C343.882 106.179 344.29 101.526 344.29 101.526C344.29 101.526 355.433 98.6274 355.454 98.5055C355.476 98.3835 359.997 96.9141 359.997 96.9141L363.476 97.2406L366.089 98.1799L367.197 107.907Z" fill="#060A1A"/>
<path d="M355.044 91.5682C352.949 89.4191 349.374 90.6702 346.921 91.5367C337.958 94.8405 332.783 105.092 336.367 114.125C337.239 117.105 339.219 117.034 337.175 120.327C334.7 123.866 331.232 126.738 330.117 131.042C328.879 135.018 330.213 140.529 334.933 141.206C330.003 140.791 328.385 135.051 329.584 130.904C330.43 127.302 332.948 124.387 335.262 121.625C336.219 120.485 337.164 119.16 337.351 117.678C337.116 117.264 336.718 116.887 336.502 116.438C332.286 108.396 334.978 97.8227 342.892 93.1862C346.234 91.2593 351.71 88.5191 355.044 91.5682Z" fill="#060A1A"/>
</g>
<defs>
<clipPath id="clip0_1147_185">
<rect width="1440" height="409" fill="white"/>
</clipPath>
</defs>
</svg>
